<svg width="150" height="47" viewBox="0 0 150 47" fill="none" xmlns="http://www.w3.org/2000/svg">
<path d="M23.1749 26.0615L20.6741 33.886L28.0273 30.3816C30.0816 29.4025 31.6397 27.6178 32.3325 25.4497L34.8328 17.6252L27.4796 21.1295C25.4258 22.1087 23.8676 23.8934 23.1749 26.0615Z" fill="white"/>
<path d="M3.34708 36.5024L0 46.9761L9.8428 42.2848C12.5926 40.9742 14.6783 38.5848 15.606 35.6833L18.9531 25.2091L9.11028 29.9005C6.35997 31.2115 4.27431 33.6005 3.34708 36.5024Z" fill="white"/>
<path d="M28.6175 8.88093L25.9851 17.1178L33.7254 13.4286C35.8878 12.3979 37.5284 10.5191 38.2576 8.23689L40.89 0L33.1497 3.68923C30.9868 4.7199 29.3467 6.59868 28.6175 8.88093Z" fill="white"/>
<path d="M14.5187 17.4712L12.5861 23.5181L18.2683 20.8099C19.8559 20.053 21.0598 18.6741 21.5952 16.999L23.5274 10.9526L17.8452 13.6608C16.258 14.4167 15.0537 15.796 14.5187 17.4712Z" fill="white"/>
<path d="M45.8088 28.648C45.8088 29.9459 45.5518 30.0999 44.3175 30.0999H43.9061C42.6035 30.0999 42.3634 29.9459 42.3634 28.648V19.3439C42.3634 18.046 42.603 17.892 43.9061 17.892H44.3175C45.5518 17.892 45.8088 18.046 45.8088 19.3439V28.648Z" fill="white"/>
<path d="M54.8152 21.6753C55.5866 22.0273 55.7579 21.9613 56.6837 21.6533C57.5581 21.3673 58.3121 21.2353 59.3409 21.2353C62.2892 21.2353 63.8661 22.1148 63.8661 24.5567V28.7795C63.8661 30.0109 63.6606 30.0989 62.512 30.0989H62.1347C60.952 30.0989 60.695 30.0109 60.695 28.7795V24.6447C60.695 22.8848 60.0608 22.5768 58.9978 22.5768C58.3804 22.5768 57.8323 22.6868 57.6095 22.7532C57.3353 22.8412 57.1808 22.9952 57.1808 23.4352V28.78C57.1808 30.0114 56.9749 30.0994 55.8267 30.0994H55.4495C54.2667 30.0994 54.0097 30.0114 54.0097 28.78V24.5127C54.0097 22.8412 53.3413 22.5768 52.3125 22.5768C51.6952 22.5768 51.1466 22.6868 50.9243 22.7532C50.65 22.8412 50.4955 22.9952 50.4955 23.4352V28.78C50.4955 30.0114 50.2896 30.0994 49.1414 30.0994H48.7642C47.5814 30.0994 47.324 30.0114 47.324 28.78V23.0832C47.324 22.1593 47.4611 21.8078 49.0553 21.5218C49.9292 21.3458 51.3352 21.2358 52.6552 21.2358C53.7013 21.2358 54.3182 21.4338 54.8152 21.6753Z" fill="white"/>
<path d="M65.0268 23.1052C65.0268 22.1813 65.164 21.7193 66.7582 21.4773C67.581 21.3233 68.7806 21.2353 70.0149 21.2353C74.3173 21.2353 75.26 22.6872 75.26 25.7886C75.26 28.8679 74.4713 30.3194 70.2887 30.3194C69.5515 30.3194 69.0891 30.2754 68.6262 30.2094C68.4034 30.1879 68.1974 30.2759 68.1974 30.7154V32.3428C68.1974 33.5743 67.9915 33.6623 66.8433 33.6623H66.4661C65.2833 33.6623 65.0259 33.5743 65.0259 32.3428V23.1052H65.0268ZM70.0149 22.5332C69.2777 22.5332 68.6777 22.6212 68.5405 22.6872C68.3519 22.7532 68.1979 22.8412 68.1979 23.2152V28.34C68.1979 28.714 68.3519 28.8019 68.5405 28.8679C68.6777 28.9339 69.2777 29.0219 70.0149 29.0219C71.4205 29.0219 71.9349 28.45 71.9349 25.7886C71.9349 23.1052 71.4205 22.5332 70.0149 22.5332Z" fill="white"/>
<path d="M79.2761 28.78C79.2761 30.0114 79.0701 30.0994 77.922 30.0994H77.5447C76.3619 30.0994 76.1045 30.0114 76.1045 28.78V23.3912C76.1045 22.4672 76.2416 21.7853 77.8358 21.5433C78.9845 21.3673 80.647 21.2353 81.9328 21.2353C82.3269 21.2353 82.4472 21.3673 82.4472 22.0053C82.4472 22.5992 82.3784 22.8192 81.9669 22.8192H81.7615C80.8015 22.8192 79.7558 22.9512 79.6187 23.0172C79.4301 23.0832 79.2761 23.2377 79.2761 23.6112V28.78Z" fill="white"/>
<path d="M82.2167 25.7886C82.2167 23.2592 82.7138 21.2573 87.5479 21.2573C92.382 21.2573 92.879 23.2587 92.879 25.7886C92.879 28.34 92.382 30.3418 87.5479 30.3418C82.7138 30.3418 82.2167 28.34 82.2167 25.7886ZM89.553 25.811C89.553 23.6332 89.3986 22.5117 87.5474 22.5117C85.6962 22.5117 85.5418 23.6332 85.5418 25.811C85.5418 27.9884 85.6962 29.0884 87.5474 29.0884C89.3986 29.0884 89.553 27.9884 89.553 25.811Z" fill="white"/>
<path d="M101.2 29.1539C100.909 29.9459 100.6 30.0999 99.8629 30.0999H96.7602C96.0061 30.0999 95.6977 29.9239 95.4229 29.1539L93.0574 22.8192C92.6464 21.6973 92.8519 21.4553 94.5828 21.4553C95.8858 21.4553 95.9883 21.6313 96.3141 22.5768L98.4396 28.4055C98.5599 28.7355 98.6965 28.7575 99.0223 28.7575H99.1936C99.4847 28.7575 99.6392 28.7355 99.7595 28.4055L101.833 22.2248C102.056 21.6088 102.382 21.4548 103.068 21.4548C103.736 21.4548 103.994 21.5428 103.736 22.2248L101.2 29.1539Z" fill="white"/>
<path d="M112.595 26.5146H107.452C107.196 26.5146 107.024 26.5806 107.024 26.9981C107.024 28.626 108.19 28.736 110.041 28.736C111.052 28.736 112.406 28.538 112.938 28.4725C113.332 28.406 113.453 28.5164 113.453 29.1544C113.453 29.7704 113.401 29.8584 112.938 29.9679C112.595 30.0344 111.207 30.2979 109.304 30.2979C104.984 30.2979 103.784 28.8464 103.784 25.7891C103.784 22.8857 104.556 21.2138 109.013 21.2138C111.464 21.2138 114.172 21.6318 114.172 25.1511C114.172 26.4486 114.052 26.5146 112.595 26.5146ZM108.978 22.5113C107.745 22.5113 107.127 23.0832 107.127 24.5787C107.127 25.0846 107.282 25.1506 107.556 25.1506H110.419C110.693 25.1506 110.847 25.0846 110.847 24.5787C110.847 23.1712 110.349 22.5113 108.978 22.5113Z" fill="white"/>
<path d="M128.311 24.3151C128.311 22.6652 127.642 22.4012 126.202 22.4012C125.465 22.4012 124.763 22.4672 123.854 22.7092C123.665 22.7752 123.477 22.8417 123.477 23.2592V29.1979C123.477 29.8579 123.442 30.0999 122.603 30.0999H122.5C121.66 30.0999 121.592 29.8359 121.592 29.1979V24.3151C121.592 22.6652 120.958 22.4012 119.5 22.4012C118.763 22.4012 118.061 22.4672 117.152 22.7092C116.964 22.7752 116.792 22.8417 116.792 23.2592V29.1979C116.792 29.8359 116.74 30.0999 115.9 30.0999H115.815C114.975 30.0999 114.906 29.8359 114.906 29.1979V22.9292C114.906 22.4232 114.958 22.0937 115.626 21.8517C116.209 21.5658 118.043 21.2578 119.517 21.2578C121.488 21.2578 122.054 21.8297 122.585 21.8297C123.1 21.8297 124.608 21.2798 126.442 21.2798C129.647 21.2798 130.196 22.1813 130.196 24.0951V29.1979C130.196 29.8579 130.162 30.0999 129.322 30.0999H129.219C128.379 30.0999 128.311 29.8359 128.311 29.1979V24.3151H128.311Z" fill="white"/>
<path d="M130.993 25.7886C130.993 22.8852 131.679 21.2573 135.69 21.2573C138.981 21.2573 140.318 22.4232 140.318 25.2386C140.318 25.9426 140.232 26.3605 139.169 26.3605H133.341C133.135 26.3605 132.964 26.4265 132.964 26.844C132.964 28.9774 134.627 29.0434 136.41 29.0434C137.506 29.0434 138.93 28.8015 139.066 28.8015C139.461 28.7355 139.632 28.7135 139.632 29.3294C139.632 29.8574 139.546 29.9454 139.152 30.0334C139.066 30.0334 137.832 30.2969 136.238 30.2969C132.21 30.2974 130.993 29.1539 130.993 25.7886ZM137.935 25.1946C138.158 25.1946 138.346 25.1071 138.346 24.7546C138.346 22.8412 137.661 22.3572 135.672 22.3572C133.667 22.3572 132.998 22.8412 132.998 24.7546C132.998 25.1066 133.17 25.1946 133.393 25.1946H137.935Z" fill="white"/>
<path d="M140.779 25.7886C140.779 22.6653 141.601 21.2573 145.441 21.2573C146.315 21.2573 147.104 21.3453 147.721 21.4113C147.944 21.4333 148.115 21.4113 148.115 20.9934V18.8159C148.115 18.134 148.167 17.892 148.989 17.892H149.092C149.966 17.892 150 18.134 150 18.8159V28.8235C150 29.4395 149.932 29.7694 148.92 30.0114C148.183 30.1874 146.931 30.3194 145.509 30.3194C141.601 30.3199 140.779 28.912 140.779 25.7886ZM147.755 29C147.91 28.978 148.115 28.978 148.115 28.56V23.0172C148.115 22.6433 147.91 22.6213 147.755 22.5553C147.567 22.4893 146.589 22.3793 145.544 22.3793C143.487 22.3793 142.75 22.8632 142.75 25.7886C142.75 28.7135 143.487 29.2199 145.544 29.2199C146.589 29.2199 147.567 29.0659 147.755 29Z" fill="white"/>
</svg>
