<svg width="1162" height="603" viewBox="0 0 1162 603" fill="none" xmlns="http://www.w3.org/2000/svg">
<path opacity="0.6" d="M77.3337 136.792C-26.1185 100.181 2.17463 214.951 35.5166 271.503C191.388 535.877 910.697 706.924 1106.97 171.426C1130.55 107.091 1137.89 48.2048 1103.52 29.7279C1000.49 -25.6541 912.557 197.968 634.928 266.446C338.327 339.604 162.538 166.945 77.3337 136.792Z" fill="#B79366"/>
<path opacity="0.6" d="M43.1407 270.774C-6.64035 416.523 51.5736 520.191 150.329 545.024C324.883 588.919 402.599 411.428 507.534 408.407C585.658 406.135 722.112 472.188 777.361 323.973C791.505 286.031 793.303 242.573 779.742 204.458C694.063 -39.1375 138.224 -8.07648 43.1407 270.774Z" fill="#B79366"/>
<path opacity="0.4" d="M242.655 155.92C402.101 230.325 415.645 316.876 713.452 227.623C967.791 151.178 1095.51 93.5221 1148.91 190.897C1216.06 312.694 1003.56 395.195 992.78 400.54C793.108 499.336 760.362 592.55 672.423 602.095C550.267 615.282 476.069 437.67 303.159 432.566C244.127 430.846 66.2835 505.049 -51.8721 457.608C-274.823 368.094 -127.543 -16.4586 242.655 155.92Z" fill="#B79366"/>
<path opacity="0.2" d="M1014.08 328.127C976.771 350.492 901.935 344.087 823.4 332.581C775.735 325.597 726.706 316.734 683.877 311.282C514.259 289.693 500.83 364.882 372.386 441.911C277.907 498.542 143.859 514.007 96.1217 440.272C26.6772 333.522 221.595 39.9206 500.057 4.29108C828.928 -37.7895 1159.07 241.383 1014.08 328.127Z" fill="#B79366"/>
</svg>
