<svg width="375" height="66" viewBox="0 0 375 66" fill="none" xmlns="http://www.w3.org/2000/svg">
<path d="M339.438 40.3159C351.281 39.3749 363.135 38.6527 375 38.1458V49.9791C318.41 54.2395 262.382 65.993 205.451 64.9548C177.25 64.4583 149.642 59.611 122.528 52.486C122.813 52.5277 123.097 52.5694 123.382 52.6076C136.066 54.4201 148.84 55.6562 161.715 55.8506C168.979 55.9826 176.233 55.9062 183.479 55.6631C235.632 53.9166 287.306 43.5312 339.438 40.3159Z" fill="#B79365" fill-opacity="0.3"/>
<path d="M375 31.5035V49.9792C318.41 54.2396 262.382 65.9931 205.451 64.9549C174.184 64.4583 143.604 58.5208 113.722 50.1111C113.847 50.1111 113.969 50.1111 114.094 50.1076C125.25 50.0417 136.378 49.5243 147.49 48.7118C192.632 45.4132 237.493 37.25 282.736 34.4757C313.437 32.0382 344.233 31.059 375 31.5035Z" fill="#B79365" fill-opacity="0.3"/>
<path d="M375 45.0521V49.8819C318.41 54.1389 262.382 65.8958 205.451 64.8542C177.562 64.3611 150.24 59.5764 123.382 52.6076C120.278 51.8056 117.184 50.9722 114.094 50.1076C90.2118 43.4687 66.6944 35.2812 43.4653 27.0556C29.0174 21.8194 14.5486 16.4861 0 11.3646V0C19.6667 6.64583 39.1562 13.875 58.6042 20.9201C87.7257 31.2326 117.306 41.4861 147.49 48.7118C159.389 51.5625 171.382 53.941 183.479 55.6632C195.743 57.4167 208.111 58.4965 220.594 58.7187C272.358 59.6667 323.521 50 375 45.0521Z" fill="#B79365" fill-opacity="0.3"/>
</svg>
